<svg width="163" height="92" viewBox="0 0 163 92" fill="none" xmlns="http://www.w3.org/2000/svg">
<path d="M64.254 53V38.832H74.22V41.142H67.224V44.772H73.406V47.06H67.224V53H64.254ZM76.5156 53V38.832H79.4856V50.712H86.4596V53H76.5156ZM94.9816 53.22C93.031 53.22 91.4836 52.7507 90.3396 51.812C89.2103 50.8587 88.6456 49.48 88.6456 47.676V38.832H91.6156V47.456C91.6156 48.5413 91.909 49.3553 92.4956 49.898C93.0823 50.426 93.911 50.69 94.9816 50.69C96.0523 50.69 96.8736 50.426 97.4456 49.898C98.0323 49.3553 98.3256 48.5413 98.3256 47.456V38.832H101.296V47.676C101.296 49.48 100.731 50.8587 99.6016 51.812C98.4723 52.7507 96.9323 53.22 94.9816 53.22ZM103.134 53L108.26 45.894L103.266 38.832H106.764L110.042 43.562L113.32 38.832H116.818L111.824 45.894L116.95 53H113.408L110.042 48.27L106.676 53H103.134Z" fill="#0044A4"/>
<path d="M118.575 53L123.987 38.832H127.243L132.633 53H129.553L128.211 49.59H122.997L121.677 53H118.575ZM123.437 47.302H127.771L125.593 41.604L123.437 47.302ZM135.359 53V38.832H138.329V53H135.359Z" fill="#00C781"/>
<path d="M59 15L27.7647 41.7966H47.8824L23 77L52.1176 48.6271H32.5294L59 15Z" stroke="url(#paint0_linear_2037_92)" stroke-width="2.5" stroke-linejoin="round"/>
<defs>
<linearGradient id="paint0_linear_2037_92" x1="41" y1="15" x2="41" y2="77" gradientUnits="userSpaceOnUse">
<stop stop-color="#00C781"/>
<stop offset="0.272154" stop-color="#0044A4"/>
<stop offset="0.487649" stop-color="#0C62DC"/>
<stop offset="0.686832" stop-color="#0044A4"/>
<stop offset="1" stop-color="#00C781"/>
</linearGradient>
</defs>
</svg>
