<svg version="1.1" id="Layer_1" xmlns="http://www.w3.org/2000/svg" xmlns:xlink="http://www.w3.org/1999/xlink" x="0px" y="0px"
	 width="100%" viewBox="0 0 512 512" enable-background="new 0 0 512 512" xml:space="preserve">
<path fill="#000000" opacity="1.000000" stroke="none"
	d="
M344.000000,513.000000
	C229.361191,513.000000 115.222374,513.000000 1.041779,513.000000
	C1.041779,342.402832 1.041779,171.805649 1.041779,1.104233
	C171.555481,1.104233 342.111053,1.104233 512.833313,1.104233
	C512.833313,171.666534 512.833313,342.333252 512.833313,513.000000
	C456.805573,513.000000 400.652802,513.000000 344.000000,513.000000
M203.166473,275.680908
	C207.430374,278.158997 211.694260,280.637085 216.307816,283.774353
	C241.196228,292.076050 262.474152,286.026459 281.102783,266.564636
	C281.102783,274.625580 281.102783,281.670959 281.102783,288.687073
	C289.971161,288.687073 298.368958,288.687073 306.660126,288.687073
	C306.660126,243.310715 306.660126,198.249252 306.660126,153.369965
	C297.915833,153.369965 289.515411,153.369965 280.832214,153.369965
	C280.832214,160.311905 280.832214,166.886139 280.832214,172.107773
	C278.267639,170.047958 275.117126,167.528488 271.978363,164.994522
	C260.079254,155.388214 246.667328,152.114304 231.430328,153.832947
	C219.078262,155.226166 208.489609,159.898651 199.569183,168.081314
	C185.522812,180.965942 178.998428,197.644608 178.128128,216.340591
	C177.412369,231.716660 180.243179,246.656631 189.091476,259.624512
	C192.944885,265.271973 198.243454,269.933350 203.166473,275.680908
M171.958328,156.448837
	C174.732513,151.039398 177.110794,145.377502 180.364975,140.274109
	C186.748795,130.262573 195.122437,122.032318 204.098297,114.228630
	C219.409683,100.916771 236.494598,90.831390 255.519333,84.036766
	C279.604828,75.434700 304.822174,74.115524 330.041351,73.024635
	C335.042419,72.808311 337.964844,70.109543 338.000031,65.234428
	C338.038177,59.940857 335.227631,57.072254 330.010406,56.994946
	C312.728729,56.738857 295.603882,57.694698 278.507843,60.826424
	C261.763733,63.893681 245.510513,68.339645 230.576447,76.323082
	C219.536530,82.224777 208.774399,89.029396 199.016769,96.841064
	C188.805161,105.016197 178.654846,113.890572 170.760864,124.206429
	C155.043884,144.745361 147.234787,168.975418 145.284485,194.575302
	C144.227203,208.452942 144.339523,222.528793 146.788025,236.568207
	C150.014130,255.066254 155.999527,272.297913 166.044388,288.074402
	C176.795975,304.960846 190.234207,319.411102 207.850632,329.152985
	C217.176361,334.310120 227.342453,338.024139 237.319901,341.898376
	C243.582809,344.330231 248.569305,347.205841 249.065887,354.783569
	C249.480988,361.117889 250.656570,367.410004 250.919815,373.744690
	C251.252136,381.741699 254.169083,384.977570 262.162323,384.993347
	C274.826294,385.018341 287.490356,385.000000 300.154358,385.000000
	C309.319122,385.000000 318.484955,385.086609 327.648224,384.969574
	C333.772186,384.891357 338.582855,381.593109 338.090607,375.759094
	C337.629517,370.294403 335.057220,368.000122 328.043427,368.000061
	C309.547302,367.999939 291.048889,367.842773 272.556671,368.111481
	C267.981079,368.177948 266.940735,366.376251 266.931335,362.386383
	C266.922943,358.810211 266.592010,355.187744 265.949158,351.668671
	C263.725159,339.493866 257.556824,330.665405 245.089478,326.908752
	C238.365082,324.882538 231.640976,322.589020 225.304947,319.594666
	C211.438522,313.041565 200.007233,303.409760 189.939102,291.731293
	C181.868790,282.370148 175.782028,272.000488 171.119980,260.822906
	C162.390762,239.894073 160.218460,217.883118 162.028519,195.412445
	C162.275894,192.341599 162.617996,189.227722 163.396103,186.259567
	C165.956726,176.491699 168.738037,166.781693 171.958328,156.448837
M351.000000,239.500000
	C351.000000,210.740433 351.000000,181.980881 351.000000,153.287231
	C342.022919,153.287231 333.617371,153.287231 325.284180,153.287231
	C325.284180,198.642151 325.284180,243.709259 325.284180,288.712799
	C333.977234,288.712799 342.382965,288.712799 351.000000,288.712799
	C351.000000,272.451019 351.000000,256.475525 351.000000,239.500000
M330.353821,413.999817
	C326.410004,413.181641 322.466217,412.363434 318.522400,411.545227
	C322.575653,410.999512 326.599365,411.338043 330.521820,410.854584
	C332.440521,410.618103 334.964386,409.286499 335.833923,407.695923
	C338.214783,403.340851 334.550079,399.041412 328.659210,399.018982
	C313.683655,398.961945 298.707733,399.000031 283.731964,399.000000
	C275.578491,399.000000 267.424194,399.067993 259.271820,398.972931
	C254.832413,398.921204 251.631271,401.198151 251.234467,405.185272
	C250.844025,409.108307 254.121017,410.415894 258.004242,411.121521
	C272.104950,413.683716 286.104706,416.796082 300.166565,419.579437
	C309.820587,421.490356 319.516663,423.188171 329.189362,425.005554
	C333.352142,425.787689 336.251007,423.861450 336.809967,420.037537
	C337.320435,416.545380 334.655853,414.559387 330.353821,413.999817
M321.000000,122.356522
	C320.758667,126.491844 322.116333,129.806717 325.175964,132.799698
	C329.387054,136.919037 334.424225,137.063263 339.709869,137.016174
	C352.308624,136.903946 357.817291,125.094048 354.067780,114.675613
	C351.010925,106.181610 343.347321,103.114433 332.400848,105.008568
	C325.695892,106.168777 321.000397,112.940140 321.000000,122.356522
M330.273804,447.000000
	C334.310150,447.719696 336.610199,444.984406 336.664520,441.958282
	C336.699432,440.011810 334.066162,436.909760 332.011505,436.251038
	C326.822876,434.587494 321.284027,434.018707 315.887665,433.000061
	C302.553162,430.483002 289.230499,427.900452 275.873138,425.511322
	C274.146332,425.202454 271.612122,425.238953 270.575134,426.258240
	C269.160461,427.648773 268.052887,430.193268 268.195953,432.141541
	C268.447815,435.571655 271.687225,436.400177 274.554840,436.968475
	C282.790955,438.600677 291.040436,440.169342 299.301086,441.672668
	C309.324249,443.496674 319.364166,445.228363 330.273804,447.000000
M292.016479,460.524963
	C295.015259,461.516815 297.960968,462.733337 301.023102,463.457214
	C309.311890,465.416656 317.630951,467.261993 325.979645,468.946228
	C328.748627,469.504852 331.353882,468.856720 331.975861,465.437408
	C332.585205,462.087463 331.417999,459.421082 328.030548,458.563385
	C317.602356,455.922821 307.158783,453.299622 296.615967,451.197357
	C294.803802,450.835999 291.863159,452.595581 290.605865,454.255585
	C289.791504,455.330750 291.089081,458.005615 292.016479,460.524963
z"/>
<path fill="#EFDB00" opacity="1.000000" stroke="none"
	d="
M202.885681,275.042572
	C198.243454,269.933350 192.944885,265.271973 189.091476,259.624512
	C180.243179,246.656631 177.412369,231.716660 178.128128,216.340591
	C178.998428,197.644608 185.522812,180.965942 199.569183,168.081314
	C208.489609,159.898651 219.078262,155.226166 231.430328,153.832947
	C246.667328,152.114304 260.079254,155.388214 271.978363,164.994522
	C275.117126,167.528488 278.267639,170.047958 280.832214,172.107773
	C280.832214,166.886139 280.832214,160.311905 280.832214,153.369965
	C289.515411,153.369965 297.915833,153.369965 306.660126,153.369965
	C306.660126,198.249252 306.660126,243.310715 306.660126,288.687073
	C298.368958,288.687073 289.971161,288.687073 281.102783,288.687073
	C281.102783,281.670959 281.102783,274.625580 281.102783,266.564636
	C262.474152,286.026459 241.196228,292.076050 216.113129,283.085693
	C212.788208,277.794250 208.246307,275.692963 202.885681,275.042572
M215.462265,190.025330
	C205.300629,201.052795 203.285156,214.602814 205.542297,228.443970
	C206.852982,236.481247 209.569946,245.564621 214.765228,251.414047
	C224.121521,261.948395 237.505539,265.151733 251.541916,262.676941
	C260.827728,261.039703 267.905182,255.088531 273.402924,247.875427
	C279.671875,239.650528 281.888824,229.516602 281.692383,219.478989
	C281.560425,212.735382 279.213593,205.842773 276.867920,199.375824
	C272.305603,186.797577 255.572296,175.944565 242.636551,177.101562
	C232.399841,178.017181 222.845016,181.052612 215.462265,190.025330
z"/>
<path fill="#FFFFFF" opacity="1.000000" stroke="none"
	d="
M171.696442,156.749146
	C168.738037,166.781693 165.956726,176.491699 163.396103,186.259567
	C162.617996,189.227722 162.275894,192.341599 162.028519,195.412445
	C160.218460,217.883118 162.390762,239.894073 171.119980,260.822906
	C175.782028,272.000488 181.868790,282.370148 189.939102,291.731293
	C200.007233,303.409760 211.438522,313.041565 225.304947,319.594666
	C231.640976,322.589020 238.365082,324.882538 245.089478,326.908752
	C257.556824,330.665405 263.725159,339.493866 265.949158,351.668671
	C266.592010,355.187744 266.922943,358.810211 266.931335,362.386383
	C266.940735,366.376251 267.981079,368.177948 272.556671,368.111481
	C291.048889,367.842773 309.547302,367.999939 328.043427,368.000061
	C335.057220,368.000122 337.629517,370.294403 338.090607,375.759094
	C338.582855,381.593109 333.772186,384.891357 327.648224,384.969574
	C318.484955,385.086609 309.319122,385.000000 300.154358,385.000000
	C287.490356,385.000000 274.826294,385.018341 262.162323,384.993347
	C254.169083,384.977570 251.252136,381.741699 250.919815,373.744690
	C250.656570,367.410004 249.480988,361.117889 249.065887,354.783569
	C248.569305,347.205841 243.582809,344.330231 237.319901,341.898376
	C227.342453,338.024139 217.176361,334.310120 207.850632,329.152985
	C190.234207,319.411102 176.795975,304.960846 166.044388,288.074402
	C155.999527,272.297913 150.014130,255.066254 146.788025,236.568207
	C144.339523,222.528793 144.227203,208.452942 145.284485,194.575302
	C147.234787,168.975418 155.043884,144.745361 170.760864,124.206429
	C178.654846,113.890572 188.805161,105.016197 199.016769,96.841064
	C208.774399,89.029396 219.536530,82.224777 230.576447,76.323082
	C245.510513,68.339645 261.763733,63.893681 278.507843,60.826424
	C295.603882,57.694698 312.728729,56.738857 330.010406,56.994946
	C335.227631,57.072254 338.038177,59.940857 338.000031,65.234428
	C337.964844,70.109543 335.042419,72.808311 330.041351,73.024635
	C304.822174,74.115524 279.604828,75.434700 255.519333,84.036766
	C236.494598,90.831390 219.409683,100.916771 204.098297,114.228630
	C195.122437,122.032318 186.748795,130.262573 180.364975,140.274109
	C177.110794,145.377502 174.732513,151.039398 171.696442,156.749146
z"/>
<path fill="#FFFFFF" opacity="1.000000" stroke="none"
	d="
M351.000000,240.000000
	C351.000000,256.475525 351.000000,272.451019 351.000000,288.712799
	C342.382965,288.712799 333.977234,288.712799 325.284180,288.712799
	C325.284180,243.709259 325.284180,198.642151 325.284180,153.287231
	C333.617371,153.287231 342.022919,153.287231 351.000000,153.287231
	C351.000000,181.980881 351.000000,210.740433 351.000000,240.000000
z"/>
<path fill="#FFFFFF" opacity="1.000000" stroke="none"
	d="
M330.775146,414.000549
	C334.655853,414.559387 337.320435,416.545380 336.809967,420.037537
	C336.251007,423.861450 333.352142,425.787689 329.189362,425.005554
	C319.516663,423.188171 309.820587,421.490356 300.166565,419.579437
	C286.104706,416.796082 272.104950,413.683716 258.004242,411.121521
	C254.121017,410.415894 250.844025,409.108307 251.234467,405.185272
	C251.631271,401.198151 254.832413,398.921204 259.271820,398.972931
	C267.424194,399.067993 275.578491,399.000000 283.731964,399.000000
	C298.707733,399.000031 313.683655,398.961945 328.659210,399.018982
	C334.550079,399.041412 338.214783,403.340851 335.833923,407.695923
	C334.964386,409.286499 332.440521,410.618103 330.521820,410.854584
	C326.599365,411.338043 322.575653,410.999512 318.522400,411.545227
	C322.466217,412.363434 326.410004,413.181641 330.775146,414.000549
z"/>
<path fill="#FFFFFF" opacity="1.000000" stroke="none"
	d="
M321.000000,121.903107
	C321.000397,112.940140 325.695892,106.168777 332.400848,105.008568
	C343.347321,103.114433 351.010925,106.181610 354.067780,114.675613
	C357.817291,125.094048 352.308624,136.903946 339.709869,137.016174
	C334.424225,137.063263 329.387054,136.919037 325.175964,132.799698
	C322.116333,129.806717 320.758667,126.491844 321.000000,121.903107
z"/>
<path fill="#FFFFFF" opacity="1.000000" stroke="none"
	d="
M329.835327,447.000000
	C319.364166,445.228363 309.324249,443.496674 299.301086,441.672668
	C291.040436,440.169342 282.790955,438.600677 274.554840,436.968475
	C271.687225,436.400177 268.447815,435.571655 268.195953,432.141541
	C268.052887,430.193268 269.160461,427.648773 270.575134,426.258240
	C271.612122,425.238953 274.146332,425.202454 275.873138,425.511322
	C289.230499,427.900452 302.553162,430.483002 315.887665,433.000061
	C321.284027,434.018707 326.822876,434.587494 332.011505,436.251038
	C334.066162,436.909760 336.699432,440.011810 336.664520,441.958282
	C336.610199,444.984406 334.310150,447.719696 329.835327,447.000000
z"/>
<path fill="#FFFFFF" opacity="1.000000" stroke="none"
	d="
M291.728394,460.244324
	C291.089081,458.005615 289.791504,455.330750 290.605865,454.255585
	C291.863159,452.595581 294.803802,450.835999 296.615967,451.197357
	C307.158783,453.299622 317.602356,455.922821 328.030548,458.563385
	C331.417999,459.421082 332.585205,462.087463 331.975861,465.437408
	C331.353882,468.856720 328.748627,469.504852 325.979645,468.946228
	C317.630951,467.261993 309.311890,465.416656 301.023102,463.457214
	C297.960968,462.733337 295.015259,461.516815 291.728394,460.244324
z"/>
<path fill="#EFDB00" opacity="1.000000" stroke="none"
	d="
M203.026077,275.361755
	C208.246307,275.692963 212.788208,277.794250 215.938293,282.756134
	C211.694260,280.637085 207.430374,278.158997 203.026077,275.361755
z"/>
<path fill="#000000" opacity="1.000000" stroke="none"
	d="
M215.722382,189.774567
	C222.845016,181.052612 232.399841,178.017181 242.636551,177.101562
	C255.572296,175.944565 272.305603,186.797577 276.867920,199.375824
	C279.213593,205.842773 281.560425,212.735382 281.692383,219.478989
	C281.888824,229.516602 279.671875,239.650528 273.402924,247.875427
	C267.905182,255.088531 260.827728,261.039703 251.541916,262.676941
	C237.505539,265.151733 224.121521,261.948395 214.765228,251.414047
	C209.569946,245.564621 206.852982,236.481247 205.542297,228.443970
	C203.285156,214.602814 205.300629,201.052795 215.722382,189.774567
z"/>
</svg>
